<svg width="12" height="14" fill="none" xmlns="http://www.w3.org/2000/svg"><path d="M11.914 2.53c-.09-.328-.15-.51-.15-.51-.098-.34-.345-.34-.713-.398l-1.992-.244c-.247-.04-.247-.04-.345-.248C8.388.416 8.287 0 7.931 0H4.068c-.357 0-.454.416-.78 1.134-.098.204-.098.204-.345.247l-1.996.245c-.363.058-.626.09-.723.43l-.14.474c-.12.433-.168.386.245.386h11.34c.413.004.368.047.245-.386Zm-1.287 1.552H1.371c-.622 0-.652.08-.615.536l.701 8.843c.06.448.105.539.657.539h7.77c.552 0 .597-.091.657-.54l.701-8.842c.038-.46.008-.536-.615-.536Z" fill="#D46966"/></svg>