<svg width="17" height="19" fill="none" xmlns="http://www.w3.org/2000/svg"><path d="M16.878 3.433c-.128-.445-.213-.693-.213-.693-.138-.46-.489-.46-1.01-.539l-2.82-.331c-.351-.055-.351-.055-.49-.337C11.883.563 11.74 0 11.236 0H5.763c-.505 0-.643.564-1.105 1.538-.139.277-.139.277-.49.337l-2.826.331c-.515.08-.887.124-1.025.584 0 0-.064.203-.197.643-.17.589-.239.524.346.524h16.066c.585.005.52.065.346-.524ZM15.055 5.54H1.943c-.882 0-.925.109-.872.727l.994 12c.085.61.149.733.93.733h11.008c.781 0 .845-.124.93-.732l.994-12c.053-.624.01-.728-.872-.728Z" fill="#D46966"/></svg>