<svg width="15" height="18" fill="none" xmlns="http://www.w3.org/2000/svg"><path d="M7.583.667A7.088 7.088 0 0 0 .5 7.75a7.088 7.088 0 0 0 7.083 7.084H8v2.5c4.05-1.95 6.667-5.834 6.667-9.584A7.088 7.088 0 0 0 7.583.667Zm.834 12.083H6.75v-1.666h1.667v1.666Zm.333-3.983a.182.182 0 0 0-.025.042 2.485 2.485 0 0 0-.117.2.299.299 0 0 0-.033.091c-.025.059-.05.117-.067.175a1.758 1.758 0 0 0-.083.567H6.75a3.4 3.4 0 0 1 .167-1.083c0-.009 0-.017.008-.025.008-.034.033-.05.042-.084.05-.133.108-.25.183-.366.025-.042.058-.084.083-.125.025-.034.042-.075.067-.1l.008.008c.7-.917 1.842-1.2 1.934-2.233.075-.817-.509-1.609-1.309-1.775a1.663 1.663 0 0 0-1.916 1.066c-.117.3-.392.542-.734.542h-.166a.763.763 0 0 1-.725-.975 3.335 3.335 0 0 1 3.691-2.325c1.409.208 2.534 1.367 2.775 2.775.367 2.033-1.358 2.525-2.108 3.625Z" fill="#555"/></svg>