<svg width="34" height="21" fill="none" xmlns="http://www.w3.org/2000/svg"><path d="M12.403 2.246h9.193v16.508h-9.193V2.246Z" fill="#FF5F00"/><path d="M12.987 10.5c0-3.354 1.576-6.33 3.998-8.254A10.445 10.445 0 0 0 10.507 0C4.699 0 0 4.696 0 10.5S4.699 21 10.506 21c2.452 0 4.7-.846 6.48-2.246a10.482 10.482 0 0 1-3.999-8.254Z" fill="#EB001B"/><path d="M34 10.5C34 16.304 29.301 21 23.494 21c-2.452 0-4.7-.846-6.48-2.246a10.438 10.438 0 0 0 3.999-8.254c0-3.354-1.576-6.33-3.998-8.254A10.446 10.446 0 0 1 23.494 0C29.3 0 34 4.725 34 10.5Z" fill="#F79E1B"/></svg>