<svg width="82" height="82" fill="none" xmlns="http://www.w3.org/2000/svg"><path d="M30.437 16.2a5.887 5.887 0 0 0-5.512-1.612 6 6 0 0 0-4.35 3.825L.362 73.95a6.038 6.038 0 0 0 5.625 8.025 6.415 6.415 0 0 0 2.063-.337l55.537-20.213a6 6 0 0 0 3.825-4.35 5.888 5.888 0 0 0-1.612-5.513L30.437 16.2ZM12.925 56.925l7.2-19.8 24.75 24.75-19.8 7.2-12.15-12.15ZM49 24c.055-2.029.54-4.023 1.425-5.85C52.412 14.175 56.162 12 61 12c2.512 0 4.125-.863 5.137-2.7A8.37 8.37 0 0 0 67 5.962 2.962 2.962 0 0 1 70 3a3 3 0 0 1 3 3c0 4.838-3.188 12-12 12-2.513 0-4.125.863-5.138 2.7A8.362 8.362 0 0 0 55 24.038 2.963 2.963 0 0 1 52 27a3 3 0 0 1-3-3Zm-9-12V3a3 3 0 1 1 6 0v9a3 3 0 0 1-6 0Zm38.137 30.862a3.038 3.038 0 0 1 0 4.276 3.075 3.075 0 0 1-4.275 0l-6-6a3.037 3.037 0 0 1 4.275-4.276l6 6Zm1.8-16.012-9 3A2.738 2.738 0 0 1 70 30a3 3 0 0 1-.938-5.85l9-3a3 3 0 0 1 1.875 5.7Z" fill="#3CAF6E"/></svg>