<svg width="42" height="50" fill="none" xmlns="http://www.w3.org/2000/svg"><path d="M41.697 9.034c-.315-1.171-.525-1.822-.525-1.822C40.831 6 39.965 6 38.678 5.792l-6.97-.871c-.866-.144-.866-.144-1.207-.886C29.359 1.484 29.004 0 27.757 0h-13.52c-1.247 0-1.588 1.484-2.73 4.048-.341.73-.341.73-1.208.886l-6.983.872c-1.273.208-2.192.325-2.533 1.536 0 0-.158.534-.486 1.692-.42 1.55-.59 1.38.853 1.38h39.694c1.444.013 1.286.17.853-1.38Zm-4.502 5.545H4.799c-2.179 0-2.284.287-2.152 1.914L5.1 48.073C5.311 49.675 5.47 50 7.398 50h27.198c1.93 0 2.087-.325 2.297-1.927l2.455-31.58c.131-1.64.026-1.913-2.153-1.913Z" fill="#D46966"/></svg>