<svg width="39" height="12" fill="none" xmlns="http://www.w3.org/2000/svg"><path d="M20.17 3.836c-.022 1.672 1.563 2.605 2.758 3.16 1.227.568 1.64.933 1.634 1.442-.009.779-.978 1.123-1.886 1.136-1.583.023-2.504-.407-3.236-.733l-.57 2.543c.734.322 2.094.604 3.504.616 3.31 0 5.475-1.557 5.486-3.97.013-3.063-4.446-3.233-4.416-4.602.01-.415.427-.858 1.338-.97.45-.058 1.695-.101 3.107.518l.554-2.46A8.818 8.818 0 0 0 25.493 0c-3.114 0-5.305 1.578-5.323 3.836M33.765.212c-.604 0-1.114.336-1.34.851L27.696 11.82h3.307l.658-1.733h4.041l.382 1.733H39L36.456.212h-2.69m.462 3.136.954 4.358h-2.614l1.66-4.358M16.16.212 13.553 11.82h3.152L19.31.212h-3.15m-4.662 0-3.28 7.9L6.89 1.395C6.735.645 6.12.212 5.437.212H.075L0 .549c1.1.228 2.352.595 3.11.988.463.24.595.45.748 1.02l2.513 9.262H9.7L14.807.212h-3.31" fill="url(#a)"/><defs><linearGradient id="a" x1="17.93" y1="12.241" x2="18.261" y2="-.084" gradientUnits="userSpaceOnUse"><stop stop-color="#222357"/><stop offset="1" stop-color="#254AA5"/></linearGradient></defs></svg>