<svg width="24" height="24" fill="none" xmlns="http://www.w3.org/2000/svg"><path d="M20.093 2a.667.667 0 0 0-.666-.667H4.76A.667.667 0 0 0 4.093 2v.666h16V2Zm1.32 2.667A.667.667 0 0 0 20.747 4H3.413a.667.667 0 0 0-.666.667v.666h18.666v-.666Zm0 2H2.587A1.253 1.253 0 0 0 1.333 7.92v12.16a1.254 1.254 0 0 0 1.254 1.254h18.826a1.254 1.254 0 0 0 1.254-1.254V7.92a1.254 1.254 0 0 0-1.254-1.253Zm-15.706 2.3a2 2 0 1 1 0 4 2 2 0 0 1 0-4ZM20 18.667H4l4.973-4.98a.474.474 0 0 1 .667 0l2.453 2.453 3.38-3.473a.473.473 0 0 1 .667 0l3.86 3.86v2.14Z" fill="#555"/></svg>