<svg width="19" height="19" fill="none" xmlns="http://www.w3.org/2000/svg"><path d="M.433 15.325.08 17.8a1 1 0 0 0 1.131 1.131l2.475-.354C4.06 18.524 5 16 5 16s.472.405.665.466c.412.13.813-.274.948-.684L7 14.01s.577.292.786.335c.266.055.524-.109.707-.293a.987.987 0 0 0 .241-.39L9 12.01s.675.187.906.214c.263.03.52-.104.707-.293l1.138-1.137a5.501 5.501 0 0 0 5.581-1.338 5.507 5.507 0 0 0 0-7.778 5.507 5.507 0 0 0-7.778 0A5.5 5.5 0 0 0 8.216 7.26l-7.5 7.5a.994.994 0 0 0-.283.566ZM15.504 3.506a2.919 2.919 0 0 1 0 4.122l-4.122-4.122a2.919 2.919 0 0 1 4.122 0Z" fill="#555"/></svg>