<svg width="48" height="48" fill="none" xmlns="http://www.w3.org/2000/svg"><path d="M35.14 1.715a7.714 7.714 0 0 0-7.715 7.714v4.286l-2.777 3.216c-.37.428-.557.644-.609.816a.857.857 0 0 0 .475 1.039c.165.072.45.072 1.017.072h19.217c.567 0 .852 0 1.016-.072a.857.857 0 0 0 .475-1.04c-.051-.17-.238-.385-.61-.815l-2.776-3.216V9.429a7.714 7.714 0 0 0-7.714-7.714Zm0 22.286a3.429 3.429 0 0 0 3.428-3.429H31.71a3.429 3.429 0 0 0 3.428 3.429Zm-12.731-6.763c.103-.31.26-.597.464-.85.13-.167.297-.36.462-.55l2.382-2.76v-3.65c0-.29.014-.574.04-.857H10.714l-.315.009a5.572 5.572 0 0 0-5.256 5.562v.316L24 24.265l6.034-3.138c-.02-.184-.03-.37-.03-.555H25.5c-.252 0-.507 0-.716-.012a2.727 2.727 0 0 1-.948-.202 2.571 2.571 0 0 1-1.428-3.12Zm12.737 8.477a5.135 5.135 0 0 1-4.193-2.167l-6.36 3.309a1.287 1.287 0 0 1-1.186 0L5.143 17.354v16.502l.008.315a5.572 5.572 0 0 0 5.563 5.258h26.571l.318-.008a5.571 5.571 0 0 0 5.254-5.563V20.572h-2.568a5.143 5.143 0 0 1-5.143 5.143Z" fill="#3D739E"/></svg>