<svg width="29" height="17" fill="none" xmlns="http://www.w3.org/2000/svg"><path d="M14.5 0C9.198 0 5.069 3.24 0 8.5 4.363 12.996 8.027 17 14.5 17c6.467 0 11.225-5.073 14.5-8.407C25.647 4.688 20.895 0 14.5 0Zm0 14.563c-3.198 0-5.8-2.723-5.8-6.063 0-3.347 2.602-6.063 5.8-6.063S20.3 5.16 20.3 8.5c0 3.347-2.602 6.063-5.8 6.063Z" fill="#3D739E"/><path d="M14.5 6.375c0-.525.187-1.003.492-1.375a3.013 3.013 0 0 0-.492-.04c-1.865 0-3.386 1.588-3.386 3.54s1.521 3.54 3.386 3.54c1.864 0 3.385-1.588 3.385-3.54 0-.153-.013-.305-.026-.458a2.035 2.035 0 0 1-1.281.458c-1.153 0-2.078-.95-2.078-2.125Z" fill="#3D739E"/></svg>