<svg width="15" height="15" fill="none" xmlns="http://www.w3.org/2000/svg"><path d="M.333 2.208A1.875 1.875 0 0 1 2.208.333h7.083a1.875 1.875 0 0 1 1.875 1.875v6.458h2.917v2.709a2.709 2.709 0 0 1-2.708 2.708H2.208a1.875 1.875 0 0 1-1.875-1.875v-10Zm10.833 10.625h.209a1.458 1.458 0 0 0 1.458-1.458V9.916h-1.667v2.917ZM3.458 3.666a.625.625 0 0 0 0 1.25h4.583a.625.625 0 0 0 0-1.25H3.458Zm0 2.917a.625.625 0 0 0 0 1.25h4.583a.625.625 0 0 0 0-1.25H3.458Zm0 2.917a.625.625 0 0 0 0 1.25h2.083a.625.625 0 0 0 0-1.25H3.458Z" fill="#555"/></svg>