<svg width="18" height="24" fill="none" xmlns="http://www.w3.org/2000/svg"><path d="M10.5 6.375V0H1.125C.502 0 0 .502 0 1.125v21.75C0 23.498.502 24 1.125 24h15.75c.623 0 1.125-.502 1.125-1.125V7.5h-6.375A1.128 1.128 0 0 1 10.5 6.375ZM13.555 16.5H10.5v3.75a.75.75 0 0 1-.75.75h-1.5a.75.75 0 0 1-.75-.75V16.5H4.445a.75.75 0 0 1-.529-1.282l4.52-4.486a.8.8 0 0 1 1.127 0l4.52 4.486a.75.75 0 0 1-.528 1.282Zm4.117-11.578L13.082.328A1.124 1.124 0 0 0 12.287 0H12v6h6v-.286c0-.295-.117-.581-.328-.792Z" fill="#3D739E"/></svg>