<svg width="22" height="22" fill="none" xmlns="http://www.w3.org/2000/svg"><path d="M19.062 17.697A10.494 10.494 0 1 0 .5 11c0 2.45.864 4.82 2.438 6.697l-.015.013c.053.063.113.117.167.18.067.076.14.15.21.224.21.228.426.447.652.653.07.063.14.121.21.181.24.207.487.404.743.587.033.022.063.052.096.075v-.01a10.425 10.425 0 0 0 12 0v.01c.033-.023.062-.053.096-.075.255-.184.502-.38.742-.587.07-.06.141-.119.21-.181.227-.206.443-.425.653-.653.07-.075.141-.148.21-.225.053-.062.114-.116.166-.18l-.016-.012ZM11 5a3.375 3.375 0 1 1 0 6.75A3.375 3.375 0 0 1 11 5ZM5.005 17.697A3.747 3.747 0 0 1 8.75 14h4.5a3.747 3.747 0 0 1 3.745 3.697 8.955 8.955 0 0 1-11.99 0Z" fill="#555"/></svg>