<svg width="192" height="45" fill="none" xmlns="http://www.w3.org/2000/svg"><path d="M52.744 34.89v-9.134h4.376c.335 0 .657 0 .996-.018l5.05 9.151h5.371l-5.785-9.875c3.134-1.097 5.199-3.865 5.199-7.5 0-5.025-3.697-8.398-8.861-8.398H48.065V34.89h4.679Zm0-21.566h6.16c2.479 0 4.375 1.839 4.375 4.188 0 2.518-1.878 4.242-4.356 4.262h-6.179v-8.45Zm38.082 21.564v-4.226H77.83v-6.877h11.08v-3.982H77.83v-6.46h12.825v-4.23H73.154v25.775h17.672Zm9.707 0V16.865l13.916 18.023h3.998V9.113h-4.657v18.043L99.876 9.113h-4.02v25.775h4.679-.002Zm34.794 0V13.323h7.603V9.115h-19.868v4.208h7.608v21.565h4.657Zm16.899 0v-10.12h11.078v-3.98h-11.078v-7.445h12.826v-4.23h-17.501v25.775h4.677-.002Zm29.687 0v-9.835l10.085-15.94h-5.502l-6.891 11.77h-.02l-6.947-11.77h-5.448l10.046 15.977v9.798h4.677ZM17.436 44c-.32 0-.624-.15-.817-.41C15.938 42.692 0 26.856 0 17.405 0 7.955 7.819 0 17.433 0S34.87 7.81 34.87 17.405c0 9.595-15.936 25.296-16.618 26.187-.194.259-.493.41-.817.41V44Zm-.003-41.943C8.949 2.057 2.05 8.942 2.05 17.405c0 7.606 12.097 19.302 15.385 23.832 3.292-4.512 15.382-16.118 15.382-23.832 0-8.465-6.902-15.348-15.385-15.348Z" fill="#D46966"/><path d="M14.957 23.133v-5.189h2.485c.193 0 .374 0 .567-.012l2.867 5.199h3.052l-3.286-5.61c1.782-.623 2.954-2.197 2.954-4.26 0-2.852-2.1-4.77-5.033-4.77h-6.262v14.64h2.656v.002Zm0-12.248h3.498c1.408 0 2.485 1.044 2.485 2.38 0 1.43-1.068 2.409-2.474 2.422h-3.51v-4.8l.001-.002Z" fill="#D46966"/></svg>