<svg width="33" height="32" fill="none" xmlns="http://www.w3.org/2000/svg"><path d="M22.9 21.633a7.53 7.53 0 0 1-4.885 1.408H13.96v6.827H9.909v-19.2h8.363a6.827 6.827 0 0 1 4.608 1.472 5.739 5.739 0 0 1 1.728 4.586 5.888 5.888 0 0 1-1.707 4.907Zm-3.2-6.912a3.328 3.328 0 0 0-2.133-.64H13.96v5.653h3.606c.77.041 1.53-.202 2.133-.682a2.796 2.796 0 0 0 .768-2.134 2.625 2.625 0 0 0-.768-2.197Zm11.541-5.739a1.066 1.066 0 0 0-.511-1.408L16.5.961 2.186 7.574a1.07 1.07 0 1 0 .896 1.942L16.5 3.308l13.42 6.186a1.067 1.067 0 0 0 1.408-.512h-.086Z" fill="#3D739E"/></svg>