<svg width="33" height="32" fill="none" xmlns="http://www.w3.org/2000/svg"><path d="M16.5 3.2a6.4 6.4 0 1 0 0 12.8 6.4 6.4 0 0 0 0-12.8ZM8.516 17.6a3.2 3.2 0 0 0-3.214 3.2c0 2.705 1.333 4.745 3.416 6.074 1.677 1.07 3.832 1.677 6.184 1.861V27.2c0-.656.259-1.248.705-1.694l4.128-4.128a7.016 7.016 0 0 1-.033-.679 5.946 5.946 0 0 1 .848-3.099H8.515Zm8.224 12.562a.768.768 0 0 0 .562.237h3.2a.91.91 0 0 0 .437-.112.589.589 0 0 0 .238-.275c.05-.12.084-.247.1-.376.016-.136.024-.274.025-.411v-.426c.384-.008.683-.02.9-.037a.75.75 0 0 0 .487-.188.734.734 0 0 0 .187-.476c.016-.208.026-.507.026-.899h.8a.731.731 0 0 0 .425-.112.788.788 0 0 0 .25-.275c.06-.117.099-.245.112-.376.016-.14.026-.288.026-.437a5.433 5.433 0 0 1-.013-.363v-.312c.275.1.553.171.837.213.284.041.57.062.864.062a4.587 4.587 0 0 0 3.324-1.437 5.02 5.02 0 0 0 1.012-1.537 4.67 4.67 0 0 0 .363-1.826 4.71 4.71 0 0 0-.375-1.875 4.814 4.814 0 0 0-1.025-1.525 4.815 4.815 0 0 0-1.525-1.024A4.708 4.708 0 0 0 26.101 16a5.169 5.169 0 0 0-1.837.375 4.633 4.633 0 0 0-1.526 1 4.98 4.98 0 0 0-1.05 1.5 4.345 4.345 0 0 0-.387 1.824c0 .392.046.805.137 1.239l-4.7 4.699a.768.768 0 0 0-.237.563v2.4c0 .216.08.405.237.563h.001ZM28.15 18.75a1.159 1.159 0 0 1 .35.85 1.158 1.158 0 0 1-.35.849 1.157 1.157 0 0 1-.85.35 1.155 1.155 0 0 1-.849-.35 1.156 1.156 0 0 1-.35-.85c0-.333.117-.616.35-.85a1.158 1.158 0 0 1 .85-.35c.333 0 .616.117.85.35Z" fill="#3D739E"/></svg>