<svg width="33" height="32" fill="none" xmlns="http://www.w3.org/2000/svg"><mask id="a" style="mask-type:alpha" maskUnits="userSpaceOnUse" x="3" y="3" width="27" height="26"><path d="m18.5 9.332 8 6.667m-22 11.333h24-24Zm22-14.667v14.667-14.667Z" stroke="#fff" stroke-width="2.667" stroke-linecap="round" stroke-linejoin="round"/><path d="M18.06 9.717c.145-.162.271-.34.377-.53.788-1.41.3-3.32-1.066-4.135-1.366-.814-3.213-.294-4.002 1.115a2.826 2.826 0 0 0-.256.603c-2.384-.184-4.672.983-5.947 3.263l11.13 6.633c1.275-2.28 1.11-4.91-.237-6.949Z" fill="#fff" stroke="#fff" stroke-width="2.667" stroke-linejoin="round"/></mask><g mask="url(#a)"><path d="M.5 0h32v32H.5V0Z" fill="#3D739E"/></g></svg>