<svg width="33" height="32" fill="none" xmlns="http://www.w3.org/2000/svg"><path d="M16.5 22.667c1.845 0 3.418-.65 4.718-1.95 1.3-1.3 1.95-2.872 1.95-4.716 0-1.845-.65-3.417-1.95-4.718-1.3-1.3-2.873-1.95-4.717-1.95-1.845 0-3.417.65-4.716 1.95-1.3 1.3-1.951 2.873-1.951 4.717 0 1.845.65 3.417 1.95 4.716 1.3 1.301 2.872 1.951 4.717 1.951Zm.667-6.933 2 2a.64.64 0 0 1 .2.466.64.64 0 0 1-.2.467.64.64 0 0 1-.466.2.64.64 0 0 1-.467-.2l-2.2-2.2c-.044-.044-.111-.2-.2-.466v-3.334a.64.64 0 0 1 .2-.466.64.64 0 0 1 .467-.2.64.64 0 0 1 .466.2.64.64 0 0 1 .2.466v3.067Zm-.666 13.5h-.334a.662.662 0 0 1-.3-.067c-2.91-.91-5.31-2.717-7.2-5.417-1.889-2.7-2.833-5.683-2.833-8.95V8.5c0-.555.161-1.055.484-1.5a2.748 2.748 0 0 1 1.25-.966l8-3a2.76 2.76 0 0 1 .933-.167c.31 0 .622.056.933.167l8 3c.511.2.928.522 1.25.967.322.444.483.944.483 1.5v6.3c0 3.266-.944 6.25-2.833 8.949-1.889 2.7-4.289 4.506-7.2 5.417-.111.045-.322.067-.633.067Z" fill="#3D739E"/></svg>