<svg width="33" height="32" fill="none" xmlns="http://www.w3.org/2000/svg"><path d="m3.166 8 9.32 9.333h-9.32v4h13.32l9.333 9.333 1.68-1.667L4.833 6.333 3.166 7.999Zm24.667 9.333h2v4h-2v-4Zm-3.334 0h2v4h-2v-4Zm1.134-10.827a4.431 4.431 0 0 0 1.333-3.173h-2a2.47 2.47 0 0 1-2.467 2.466v2c2.987 0 5.334 2.44 5.334 5.427v2.773h2v-2.773c0-2.973-1.707-5.533-4.2-6.72Zm-5.8 5.093h2.04c1.4 0 2.626.987 2.626 2.734v1.666h2v-2.12c0-2.4-2.133-4.213-4.626-4.213h-2.04c-1.36 0-2.467-1.307-2.467-2.667 0-1.36 1.107-2.333 2.467-2.333v-2a4.466 4.466 0 1 0 0 8.933Zm3.333 9.64v-3.906h-3.907l3.907 3.906Z" fill="#3D739E"/></svg>