<svg width="33" height="32" fill="none" xmlns="http://www.w3.org/2000/svg"><g clip-path="url(#a)"><path d="M24.962 0a1.23 1.23 0 0 0-.732.347L16.5 8.078l-4.038-4.04A1.252 1.252 0 1 0 10.69 5.81l4.04 4.037H4.191A3.692 3.692 0 0 0 .5 13.539v14.77A3.692 3.692 0 0 0 4.192 32h24.616a3.692 3.692 0 0 0 3.692-3.692v-14.77a3.692 3.692 0 0 0-3.692-3.692h-10.54L26 2.117A1.231 1.231 0 0 0 24.962 0ZM13.423 12.31c9.163 0 10.462.025 10.462 8.615s-1.389 8.615-10.462 8.615c-9.115 0-10.461-.09-10.461-8.615 0-8.522 1.346-8.615 10.461-8.615Zm14.77 3.616c1.065 0 1.923.856 1.923 1.922a1.92 1.92 0 0 1-1.924 1.924 1.919 1.919 0 0 1-1.923-1.924 1.92 1.92 0 0 1 1.923-1.924v.002Zm0 4.923c1.065 0 1.923.856 1.923 1.922a1.92 1.92 0 0 1-1.924 1.924 1.92 1.92 0 0 1-1.778-2.66 1.918 1.918 0 0 1 1.778-1.188v.002Z" fill="#3D739E"/></g><defs><clipPath id="a"><path fill="#fff" transform="translate(.5)" d="M0 0h32v32H0z"/></clipPath></defs></svg>