<svg width="33" height="32" fill="none" xmlns="http://www.w3.org/2000/svg"><mask id="a" style="mask-type:alpha" maskUnits="userSpaceOnUse" x="4" y="1" width="25" height="30"><path d="M25.834 2.666H7.167c-.736 0-1.333.597-1.333 1.333v24c0 .737.597 1.334 1.333 1.334h18.667c.736 0 1.333-.597 1.333-1.334V4c0-.736-.597-1.333-1.333-1.333Z" stroke="#fff" stroke-width="2.667"/><path d="M5.834 8a1.333 1.333 0 0 0 1.333 1.333h18.667a1.333 1.333 0 0 0 1.333-1.334V4a1.334 1.334 0 0 0-1.333-1.333H7.167A1.333 1.333 0 0 0 5.834 4v4Z" fill="#fff" stroke="#fff" stroke-width="2.667"/><path d="M9.833 7.333a1.333 1.333 0 1 0 0-2.667 1.333 1.333 0 0 0 0 2.667Zm4 0a1.333 1.333 0 1 0 0-2.667 1.333 1.333 0 0 0 0 2.667Z" fill="#000"/><path d="M16.5 24a4.667 4.667 0 1 0 0-9.334 4.667 4.667 0 0 0 0 9.333Z" fill="#fff" stroke="#fff" stroke-width="2.667"/></mask><g mask="url(#a)"><path d="M.5 0h32v32H.5V0Z" fill="#3D739E"/></g></svg>