<svg width="33" height="32" fill="none" xmlns="http://www.w3.org/2000/svg"><path d="M16.499 8c4.716 0 9.116 1.805 12.39 5.08l1.886-1.886c-3.778-3.779-8.848-5.86-14.276-5.86C11.07 5.335 6 7.415 2.223 11.194l1.885 1.885c3.275-3.274 7.675-5.078 12.39-5.078Zm7.561 11.077c-4.099-4.099-11.024-4.099-15.123 0l1.886 1.885c3.076-3.076 8.276-3.076 11.352 0l1.885-1.885Z" fill="#3D739E"/><path d="M27.75 15.056c-6.097-6.098-16.402-6.098-22.498 0l1.885 1.886c5.076-5.076 13.651-5.076 18.727 0l1.885-1.886ZM16.499 26.667a2.667 2.667 0 1 0 0-5.333 2.667 2.667 0 0 0 0 5.333Z" fill="#3D739E"/></svg>