<svg width="24" height="24" fill="none" xmlns="http://www.w3.org/2000/svg"><path d="M16.5 9.75a.75.75 0 0 1 .75-.75h1.5a.75.75 0 0 1 .75.75v1.5a.75.75 0 0 1-.75.75h-1.5a.75.75 0 0 1-.75-.75v-1.5Zm-4.5 0a.75.75 0 0 1 .75-.75h1.5a.75.75 0 0 1 .75.75v1.5a.75.75 0 0 1-.75.75h-1.5a.75.75 0 0 1-.75-.75v-1.5Zm-7.5 4.5a.75.75 0 0 1 .75-.75h1.5a.75.75 0 0 1 .75.75v1.5a.75.75 0 0 1-.75.75h-1.5a.75.75 0 0 1-.75-.75v-1.5Zm4.5 0a.75.75 0 0 1 .75-.75h1.5a.75.75 0 0 1 .75.75v1.5a.75.75 0 0 1-.75.75h-1.5a.75.75 0 0 1-.75-.75v-1.5Z" fill="#555"/><path d="M5.25 0A.75.75 0 0 1 6 .75v.75h12V.75a.75.75 0 1 1 1.5 0v.75H21a3 3 0 0 1 3 3V21a3 3 0 0 1-3 3H3a3 3 0 0 1-3-3V4.5a3 3 0 0 1 3-3h1.5V.75A.75.75 0 0 1 5.25 0ZM1.5 6v15A1.5 1.5 0 0 0 3 22.5h18a1.5 1.5 0 0 0 1.5-1.5V6h-21Z" fill="#555"/></svg>