<svg width="24" height="24" fill="none" xmlns="http://www.w3.org/2000/svg"><path d="M9.218 10.72a.75.75 0 0 1 1.062 0L12 12.44l1.718-1.72a.75.75 0 0 1 1.062 1.062l-1.72 1.72 1.72 1.718a.751.751 0 0 1-1.062 1.062L12 14.562l-1.719 1.72a.75.75 0 1 1-1.062-1.062l1.72-1.719-1.72-1.719a.75.75 0 0 1 0-1.062Z" fill="#555"/><path d="M5.25 0A.75.75 0 0 1 6 .75v.75h12V.75a.75.75 0 1 1 1.5 0v.75H21a3 3 0 0 1 3 3V21a3 3 0 0 1-3 3H3a3 3 0 0 1-3-3V4.5a3 3 0 0 1 3-3h1.5V.75A.75.75 0 0 1 5.25 0ZM1.5 6v15A1.5 1.5 0 0 0 3 22.5h18a1.5 1.5 0 0 0 1.5-1.5V6h-21Z" fill="#555"/></svg>